<svg xmlns="http://www.w3.org/2000/svg" viewBox="0 0 1600 900" width="1600" height="900" preserveAspectRatio="xMidYMid slice">
<defs><radialGradient id="bg" cx="70%" cy="30%" r="90%"><stop offset="0" stop-color="#0D1B3E"/><stop offset=".6" stop-color="#08112A"/><stop offset="1" stop-color="#04080F"/></radialGradient><radialGradient id="glow"><stop offset="0" stop-color="#C9A84C" stop-opacity=".35"/><stop offset="1" stop-color="#C9A84C" stop-opacity="0"/></radialGradient></defs>
<rect width="1600" height="900" fill="url(#bg)"/><circle cx="378" cy="93" r="2.0" fill="#F0EDE4" opacity="0.37"/><circle cx="144" cy="18" r="1.5" fill="#F0EDE4" opacity="0.51"/><circle cx="1224" cy="200" r="1.5" fill="#F0EDE4" opacity="0.27"/><circle cx="276" cy="96" r="1.0" fill="#F0EDE4" opacity="0.57"/><circle cx="41" cy="577" r="1.5" fill="#F0EDE4" opacity="0.51"/><circle cx="309" cy="279" r="1.5" fill="#F0EDE4" opacity="0.19"/><circle cx="969" cy="605" r="1.0" fill="#F0EDE4" opacity="0.23"/><circle cx="758" cy="80" r="1.5" fill="#F0EDE4" opacity="0.15"/><circle cx="467" cy="634" r="1.5" fill="#F0EDE4" opacity="0.53"/><circle cx="813" cy="373" r="1.5" fill="#F0EDE4" opacity="0.34"/><circle cx="258" cy="275" r="1.0" fill="#F0EDE4" opacity="0.19"/><circle cx="740" cy="898" r="2.0" fill="#F0EDE4" opacity="0.47"/><circle cx="232" cy="606" r="1.0" fill="#F0EDE4" opacity="0.34"/><circle cx="324" cy="569" r="1.5" fill="#F0EDE4" opacity="0.23"/><circle cx="697" cy="530" r="1.0" fill="#F0EDE4" opacity="0.56"/><circle cx="162" cy="55" r="1.0" fill="#F0EDE4" opacity="0.27"/><circle cx="932" cy="776" r="1.0" fill="#F0EDE4" opacity="0.30"/><circle cx="284" cy="413" r="1.0" fill="#F0EDE4" opacity="0.31"/><circle cx="132" cy="868" r="1.5" fill="#F0EDE4" opacity="0.48"/><circle cx="1536" cy="16" r="1.5" fill="#F0EDE4" opacity="0.29"/><circle cx="245" cy="587" r="1.0" fill="#F0EDE4" opacity="0.28"/><circle cx="306" cy="400" r="1.0" fill="#F0EDE4" opacity="0.26"/><circle cx="958" cy="143" r="1.0" fill="#F0EDE4" opacity="0.31"/><circle cx="728" cy="329" r="1.5" fill="#F0EDE4" opacity="0.60"/><circle cx="914" cy="395" r="1.0" fill="#F0EDE4" opacity="0.34"/><circle cx="333" cy="53" r="1.0" fill="#F0EDE4" opacity="0.48"/><circle cx="953" cy="874" r="1.0" fill="#F0EDE4" opacity="0.40"/><circle cx="932" cy="289" r="1.0" fill="#F0EDE4" opacity="0.21"/><circle cx="847" cy="696" r="2.0" fill="#F0EDE4" opacity="0.44"/><circle cx="320" cy="182" r="2.0" fill="#F0EDE4" opacity="0.33"/><circle cx="59" cy="379" r="1.0" fill="#F0EDE4" opacity="0.44"/><circle cx="685" cy="194" r="1.0" fill="#F0EDE4" opacity="0.16"/><circle cx="407" cy="218" r="1.0" fill="#F0EDE4" opacity="0.50"/><circle cx="667" cy="236" r="1.5" fill="#F0EDE4" opacity="0.17"/><circle cx="1485" cy="509" r="2.0" fill="#F0EDE4" opacity="0.58"/><circle cx="1045" cy="784" r="1.0" fill="#F0EDE4" opacity="0.37"/><circle cx="149" cy="190" r="1.0" fill="#F0EDE4" opacity="0.30"/><circle cx="1051" cy="720" r="1.5" fill="#F0EDE4" opacity="0.52"/><circle cx="845" cy="589" r="1.5" fill="#F0EDE4" opacity="0.30"/><circle cx="627" cy="447" r="1.5" fill="#F0EDE4" opacity="0.58"/><circle cx="1069" cy="40" r="1.0" fill="#F0EDE4" opacity="0.50"/><circle cx="431" cy="771" r="1.0" fill="#F0EDE4" opacity="0.46"/><circle cx="743" cy="425" r="2.0" fill="#F0EDE4" opacity="0.57"/><circle cx="350" cy="3" r="1.0" fill="#F0EDE4" opacity="0.16"/><circle cx="1402" cy="104" r="2.0" fill="#F0EDE4" opacity="0.55"/><circle cx="881" cy="791" r="1.0" fill="#F0EDE4" opacity="0.22"/><circle cx="973" cy="737" r="2.0" fill="#F0EDE4" opacity="0.56"/><circle cx="703" cy="71" r="1.0" fill="#F0EDE4" opacity="0.37"/><circle cx="1384" cy="547" r="1.0" fill="#F0EDE4" opacity="0.17"/><circle cx="128" cy="791" r="1.0" fill="#F0EDE4" opacity="0.28"/><circle cx="555" cy="67" r="2.0" fill="#F0EDE4" opacity="0.32"/><circle cx="1260" cy="280" r="1.0" fill="#F0EDE4" opacity="0.49"/><circle cx="1369" cy="360" r="1.0" fill="#F0EDE4" opacity="0.20"/><circle cx="994" cy="797" r="2.0" fill="#F0EDE4" opacity="0.34"/><circle cx="1138" cy="400" r="1.0" fill="#F0EDE4" opacity="0.44"/><circle cx="1488" cy="431" r="1.0" fill="#F0EDE4" opacity="0.51"/><circle cx="268" cy="787" r="1.0" fill="#F0EDE4" opacity="0.47"/><circle cx="522" cy="774" r="1.5" fill="#F0EDE4" opacity="0.39"/><circle cx="1447" cy="639" r="1.0" fill="#F0EDE4" opacity="0.44"/><circle cx="194" cy="100" r="2.0" fill="#F0EDE4" opacity="0.39"/><circle cx="833" cy="370" r="1.5" fill="#F0EDE4" opacity="0.31"/><circle cx="1227" cy="887" r="1.0" fill="#F0EDE4" opacity="0.45"/><circle cx="975" cy="282" r="2.0" fill="#F0EDE4" opacity="0.50"/><circle cx="909" cy="843" r="2.0" fill="#F0EDE4" opacity="0.43"/><circle cx="707" cy="127" r="1.5" fill="#F0EDE4" opacity="0.59"/><circle cx="544" cy="390" r="1.0" fill="#F0EDE4" opacity="0.45"/><circle cx="995" cy="257" r="1.5" fill="#F0EDE4" opacity="0.24"/><circle cx="1270" cy="607" r="1.0" fill="#F0EDE4" opacity="0.18"/><circle cx="1033" cy="814" r="1.5" fill="#F0EDE4" opacity="0.44"/><circle cx="523" cy="271" r="1.0" fill="#F0EDE4" opacity="0.42"/><circle cx="838" cy="679" r="1.0" fill="#F0EDE4" opacity="0.51"/><circle cx="1292" cy="858" r="1.0" fill="#F0EDE4" opacity="0.23"/><circle cx="1579" cy="595" r="1.0" fill="#F0EDE4" opacity="0.49"/><circle cx="1550" cy="105" r="2.0" fill="#F0EDE4" opacity="0.45"/><circle cx="1192" cy="556" r="1.5" fill="#F0EDE4" opacity="0.53"/><circle cx="1100" cy="793" r="1.0" fill="#F0EDE4" opacity="0.55"/><circle cx="1126" cy="279" r="1.0" fill="#F0EDE4" opacity="0.49"/><circle cx="860" cy="477" r="2.0" fill="#F0EDE4" opacity="0.55"/><circle cx="640" cy="361" r="1.5" fill="#F0EDE4" opacity="0.28"/><circle cx="659" cy="12" r="1.0" fill="#F0EDE4" opacity="0.55"/><circle cx="734" cy="505" r="1.5" fill="#F0EDE4" opacity="0.33"/><circle cx="622" cy="25" r="1.0" fill="#F0EDE4" opacity="0.36"/><circle cx="1544" cy="568" r="1.5" fill="#F0EDE4" opacity="0.42"/><circle cx="500" cy="82" r="1.5" fill="#F0EDE4" opacity="0.37"/><circle cx="1024" cy="429" r="1.0" fill="#F0EDE4" opacity="0.22"/><circle cx="381" cy="269" r="1.0" fill="#F0EDE4" opacity="0.22"/><circle cx="1265" cy="613" r="1.5" fill="#F0EDE4" opacity="0.16"/><circle cx="393" cy="676" r="1.0" fill="#F0EDE4" opacity="0.16"/><circle cx="506" cy="110" r="1.0" fill="#F0EDE4" opacity="0.55"/><circle cx="1029" cy="549" r="1.0" fill="#F0EDE4" opacity="0.48"/><circle cx="1048" cy="857" r="1.0" fill="#F0EDE4" opacity="0.40"/><circle cx="1110" cy="651" r="1.0" fill="#F0EDE4" opacity="0.38"/><circle cx="247" cy="760" r="2.0" fill="#F0EDE4" opacity="0.38"/><circle cx="602" cy="147" r="1.5" fill="#F0EDE4" opacity="0.38"/><circle cx="860" cy="273" r="2.0" fill="#F0EDE4" opacity="0.30"/><circle cx="619" cy="381" r="1.0" fill="#F0EDE4" opacity="0.28"/><circle cx="1082" cy="274" r="1.0" fill="#F0EDE4" opacity="0.19"/><circle cx="186" cy="548" r="1.0" fill="#F0EDE4" opacity="0.25"/><circle cx="886" cy="429" r="1.0" fill="#F0EDE4" opacity="0.55"/><circle cx="724" cy="659" r="2.0" fill="#F0EDE4" opacity="0.30"/><circle cx="276" cy="477" r="1.0" fill="#F0EDE4" opacity="0.20"/><circle cx="991" cy="821" r="1.5" fill="#F0EDE4" opacity="0.57"/><circle cx="1331" cy="372" r="1.0" fill="#F0EDE4" opacity="0.52"/><circle cx="339" cy="521" r="1.5" fill="#F0EDE4" opacity="0.50"/><circle cx="764" cy="750" r="1.0" fill="#F0EDE4" opacity="0.55"/><circle cx="1429" cy="795" r="1.0" fill="#F0EDE4" opacity="0.42"/><circle cx="843" cy="889" r="1.5" fill="#F0EDE4" opacity="0.57"/><circle cx="283" cy="39" r="1.0" fill="#F0EDE4" opacity="0.17"/><circle cx="1082" cy="303" r="1.0" fill="#F0EDE4" opacity="0.46"/><circle cx="187" cy="881" r="1.0" fill="#F0EDE4" opacity="0.18"/>
<circle cx="1200" cy="260" r="380" fill="url(#glow)"/>
<path d="M180 800 L1440 800" stroke="#5C5A54" stroke-width="3"/><rect x="230" y="660" width="70" height="120" rx="10" fill="#C9A84C" opacity="0.18"/><rect x="350" y="610" width="70" height="170" rx="10" fill="#C9A84C" opacity="0.23"/><rect x="470" y="630" width="70" height="150" rx="10" fill="#C9A84C" opacity="0.28"/><rect x="590" y="540" width="70" height="240" rx="10" fill="#C9A84C" opacity="0.33"/><rect x="710" y="560" width="70" height="220" rx="10" fill="#C9A84C" opacity="0.38"/><rect x="830" y="450" width="70" height="330" rx="10" fill="#C9A84C" opacity="0.43"/><rect x="950" y="480" width="70" height="300" rx="10" fill="#C9A84C" opacity="0.48"/><rect x="1070" y="360" width="70" height="420" rx="10" fill="#C9A84C" opacity="0.53"/><rect x="1190" y="310" width="70" height="470" rx="10" fill="#C9A84C" opacity="0.58"/><rect x="1310" y="220" width="70" height="560" rx="10" fill="#C9A84C" opacity="0.63"/>
<path d="M265,620 L385,570 L505,590 L625,500 L745,520 L865,410 L985,440 L1105,320 L1225,270 L1345,180" fill="none" stroke="#F0EDE4" stroke-width="5" stroke-linejoin="round" opacity=".85"/><circle cx="265" cy="620" r="9" fill="#08112A" stroke="#F0EDE4" stroke-width="4"/><circle cx="385" cy="570" r="9" fill="#08112A" stroke="#F0EDE4" stroke-width="4"/><circle cx="505" cy="590" r="9" fill="#08112A" stroke="#F0EDE4" stroke-width="4"/><circle cx="625" cy="500" r="9" fill="#08112A" stroke="#F0EDE4" stroke-width="4"/><circle cx="745" cy="520" r="9" fill="#08112A" stroke="#F0EDE4" stroke-width="4"/><circle cx="865" cy="410" r="9" fill="#08112A" stroke="#F0EDE4" stroke-width="4"/><circle cx="985" cy="440" r="9" fill="#08112A" stroke="#F0EDE4" stroke-width="4"/><circle cx="1105" cy="320" r="9" fill="#08112A" stroke="#F0EDE4" stroke-width="4"/><circle cx="1225" cy="270" r="9" fill="#08112A" stroke="#F0EDE4" stroke-width="4"/><circle cx="1345" cy="180" r="9" fill="#08112A" stroke="#F0EDE4" stroke-width="4"/>
<polygon points="1345.0,25.0 1392.6,52.5 1392.6,107.5 1345.0,135.0 1297.4,107.5 1297.4,52.5" fill="#C9A84C" opacity=".9"/><polygon points="1345.0,40.4 1379.3,60.2 1379.3,99.8 1345.0,119.6 1310.7,99.8 1310.7,60.2" fill="#08112A"/><polygon points="1345.0,60.2 1362.1,70.1 1362.1,89.9 1345.0,99.8 1327.9,89.9 1327.9,70.1" fill="#C9A84C" opacity=".6"/>
</svg>
